<mxfile host="app.diagrams.net" modified="2023-06-29T17:14:34.521Z" agent="Mozilla/5.0 (Windows NT 10.0; Win64; x64) AppleWebKit/537.36 (KHTML, like Gecko) Chrome/114.0.0.0 Safari/537.36" etag="0wlo1CeHsQpGOJ6hLChD" version="21.3.6" type="device">
  <diagram name="Страница 1" id="LW7k3ERH3k6OYLm9xY8x">
    <mxGraphModel dx="1396" dy="758" grid="1" gridSize="10" guides="1" tooltips="1" connect="1" arrows="1" fold="1" page="1" pageScale="1" pageWidth="827" pageHeight="1169" math="0" shadow="0">
      <root>
        <mxCell id="0" />
        <mxCell id="1" parent="0" />
        <mxCell id="o-ercXXJlJIod0jqBGvS-1" style="edgeStyle=orthogonalEdgeStyle;rounded=0;orthogonalLoop=1;jettySize=auto;html=1;exitX=0.5;exitY=1;exitDx=0;exitDy=0;entryX=0.5;entryY=0;entryDx=0;entryDy=0;" edge="1" parent="1" source="7tNmrzLedv5R81ITYd9M-2" target="7tNmrzLedv5R81ITYd9M-3">
          <mxGeometry relative="1" as="geometry" />
        </mxCell>
        <mxCell id="7tNmrzLedv5R81ITYd9M-2" value="кнопка открытия формы входа" style="rounded=1;whiteSpace=wrap;html=1;" parent="1" vertex="1">
          <mxGeometry x="100" y="100" width="120" height="60" as="geometry" />
        </mxCell>
        <mxCell id="o-ercXXJlJIod0jqBGvS-12" style="edgeStyle=orthogonalEdgeStyle;rounded=0;orthogonalLoop=1;jettySize=auto;html=1;exitX=0.5;exitY=1;exitDx=0;exitDy=0;entryX=0.5;entryY=0;entryDx=0;entryDy=0;" edge="1" parent="1" source="7tNmrzLedv5R81ITYd9M-3" target="o-ercXXJlJIod0jqBGvS-11">
          <mxGeometry relative="1" as="geometry" />
        </mxCell>
        <mxCell id="7tNmrzLedv5R81ITYd9M-3" value="форма входа" style="rounded=1;whiteSpace=wrap;html=1;" parent="1" vertex="1">
          <mxGeometry x="100" y="200" width="120" height="60" as="geometry" />
        </mxCell>
        <mxCell id="o-ercXXJlJIod0jqBGvS-16" style="edgeStyle=orthogonalEdgeStyle;rounded=0;orthogonalLoop=1;jettySize=auto;html=1;exitX=1;exitY=0.5;exitDx=0;exitDy=0;entryX=0;entryY=0.5;entryDx=0;entryDy=0;" edge="1" parent="1" source="o-ercXXJlJIod0jqBGvS-3" target="o-ercXXJlJIod0jqBGvS-15">
          <mxGeometry relative="1" as="geometry" />
        </mxCell>
        <mxCell id="o-ercXXJlJIod0jqBGvS-3" value="форма регистрации" style="rounded=1;whiteSpace=wrap;html=1;" vertex="1" parent="1">
          <mxGeometry x="300" y="340" width="120" height="60" as="geometry" />
        </mxCell>
        <mxCell id="o-ercXXJlJIod0jqBGvS-10" value="загрузка доски с задачами, вырисовка имени пользователя на экране&lt;br&gt;" style="rounded=1;whiteSpace=wrap;html=1;" vertex="1" parent="1">
          <mxGeometry x="100" y="750" width="120" height="80" as="geometry" />
        </mxCell>
        <mxCell id="o-ercXXJlJIod0jqBGvS-14" style="edgeStyle=orthogonalEdgeStyle;rounded=0;orthogonalLoop=1;jettySize=auto;html=1;exitX=1;exitY=0.5;exitDx=0;exitDy=0;entryX=0;entryY=0.5;entryDx=0;entryDy=0;" edge="1" parent="1" source="o-ercXXJlJIod0jqBGvS-11" target="o-ercXXJlJIod0jqBGvS-3">
          <mxGeometry relative="1" as="geometry" />
        </mxCell>
        <mxCell id="o-ercXXJlJIod0jqBGvS-24" style="edgeStyle=orthogonalEdgeStyle;rounded=0;orthogonalLoop=1;jettySize=auto;html=1;exitX=0.5;exitY=1;exitDx=0;exitDy=0;entryX=0.5;entryY=0;entryDx=0;entryDy=0;" edge="1" parent="1" source="o-ercXXJlJIod0jqBGvS-11" target="o-ercXXJlJIod0jqBGvS-20">
          <mxGeometry relative="1" as="geometry" />
        </mxCell>
        <mxCell id="o-ercXXJlJIod0jqBGvS-11" value="отправка формы/переход в форму регистрации&lt;br&gt;" style="rhombus;whiteSpace=wrap;html=1;" vertex="1" parent="1">
          <mxGeometry x="65" y="290" width="190" height="160" as="geometry" />
        </mxCell>
        <mxCell id="o-ercXXJlJIod0jqBGvS-17" style="edgeStyle=orthogonalEdgeStyle;rounded=0;orthogonalLoop=1;jettySize=auto;html=1;exitX=0.5;exitY=0;exitDx=0;exitDy=0;" edge="1" parent="1" source="o-ercXXJlJIod0jqBGvS-15">
          <mxGeometry relative="1" as="geometry">
            <mxPoint x="220" y="230" as="targetPoint" />
            <Array as="points">
              <mxPoint x="560" y="230" />
              <mxPoint x="220" y="230" />
            </Array>
          </mxGeometry>
        </mxCell>
        <mxCell id="o-ercXXJlJIod0jqBGvS-19" style="edgeStyle=orthogonalEdgeStyle;rounded=0;orthogonalLoop=1;jettySize=auto;html=1;exitX=0.5;exitY=1;exitDx=0;exitDy=0;entryX=0.5;entryY=0;entryDx=0;entryDy=0;" edge="1" parent="1" source="o-ercXXJlJIod0jqBGvS-15" target="o-ercXXJlJIod0jqBGvS-18">
          <mxGeometry relative="1" as="geometry" />
        </mxCell>
        <mxCell id="o-ercXXJlJIod0jqBGvS-15" value="отправка формы/переход в форму входа" style="rhombus;whiteSpace=wrap;html=1;" vertex="1" parent="1">
          <mxGeometry x="465" y="290" width="190" height="160" as="geometry" />
        </mxCell>
        <mxCell id="o-ercXXJlJIod0jqBGvS-29" style="edgeStyle=orthogonalEdgeStyle;rounded=0;orthogonalLoop=1;jettySize=auto;html=1;exitX=0.5;exitY=1;exitDx=0;exitDy=0;entryX=0.5;entryY=0;entryDx=0;entryDy=0;" edge="1" parent="1" source="o-ercXXJlJIod0jqBGvS-18" target="o-ercXXJlJIod0jqBGvS-28">
          <mxGeometry relative="1" as="geometry" />
        </mxCell>
        <mxCell id="o-ercXXJlJIod0jqBGvS-18" value="вывод окна об успешной регистрации/или не успешной" style="rounded=1;whiteSpace=wrap;html=1;" vertex="1" parent="1">
          <mxGeometry x="500" y="500" width="120" height="60" as="geometry" />
        </mxCell>
        <mxCell id="o-ercXXJlJIod0jqBGvS-25" style="edgeStyle=orthogonalEdgeStyle;rounded=0;orthogonalLoop=1;jettySize=auto;html=1;exitX=0.5;exitY=1;exitDx=0;exitDy=0;entryX=0.5;entryY=0;entryDx=0;entryDy=0;" edge="1" parent="1" source="o-ercXXJlJIod0jqBGvS-20" target="o-ercXXJlJIod0jqBGvS-21">
          <mxGeometry relative="1" as="geometry" />
        </mxCell>
        <mxCell id="o-ercXXJlJIod0jqBGvS-20" value="отправка POST запроса на сервер, и получение данных опользователе и его задачах&lt;br&gt;" style="rounded=1;whiteSpace=wrap;html=1;" vertex="1" parent="1">
          <mxGeometry x="100" y="480" width="120" height="80" as="geometry" />
        </mxCell>
        <mxCell id="o-ercXXJlJIod0jqBGvS-26" style="edgeStyle=orthogonalEdgeStyle;rounded=0;orthogonalLoop=1;jettySize=auto;html=1;exitX=0.5;exitY=1;exitDx=0;exitDy=0;entryX=0.5;entryY=0;entryDx=0;entryDy=0;" edge="1" parent="1" source="o-ercXXJlJIod0jqBGvS-21" target="o-ercXXJlJIod0jqBGvS-23">
          <mxGeometry relative="1" as="geometry" />
        </mxCell>
        <mxCell id="o-ercXXJlJIod0jqBGvS-21" value="создание доски" style="rounded=1;whiteSpace=wrap;html=1;" vertex="1" parent="1">
          <mxGeometry x="100" y="585" width="120" height="60" as="geometry" />
        </mxCell>
        <mxCell id="o-ercXXJlJIod0jqBGvS-27" style="edgeStyle=orthogonalEdgeStyle;rounded=0;orthogonalLoop=1;jettySize=auto;html=1;exitX=0.5;exitY=1;exitDx=0;exitDy=0;entryX=0.5;entryY=0;entryDx=0;entryDy=0;" edge="1" parent="1" source="o-ercXXJlJIod0jqBGvS-23" target="o-ercXXJlJIod0jqBGvS-10">
          <mxGeometry relative="1" as="geometry" />
        </mxCell>
        <mxCell id="o-ercXXJlJIod0jqBGvS-23" value="создание карточек с задачами" style="rounded=1;whiteSpace=wrap;html=1;" vertex="1" parent="1">
          <mxGeometry x="100" y="660" width="120" height="60" as="geometry" />
        </mxCell>
        <mxCell id="o-ercXXJlJIod0jqBGvS-36" style="edgeStyle=orthogonalEdgeStyle;rounded=0;orthogonalLoop=1;jettySize=auto;html=1;exitX=0;exitY=0.5;exitDx=0;exitDy=0;entryX=1;entryY=0.5;entryDx=0;entryDy=0;" edge="1" parent="1" source="o-ercXXJlJIod0jqBGvS-28" target="o-ercXXJlJIod0jqBGvS-31">
          <mxGeometry relative="1" as="geometry" />
        </mxCell>
        <mxCell id="o-ercXXJlJIod0jqBGvS-37" style="edgeStyle=orthogonalEdgeStyle;rounded=0;orthogonalLoop=1;jettySize=auto;html=1;exitX=1;exitY=0.5;exitDx=0;exitDy=0;entryX=0;entryY=0.5;entryDx=0;entryDy=0;" edge="1" parent="1" source="o-ercXXJlJIod0jqBGvS-28" target="o-ercXXJlJIod0jqBGvS-30">
          <mxGeometry relative="1" as="geometry" />
        </mxCell>
        <mxCell id="o-ercXXJlJIod0jqBGvS-28" value="успешная?" style="rhombus;whiteSpace=wrap;html=1;" vertex="1" parent="1">
          <mxGeometry x="520" y="590" width="80" height="80" as="geometry" />
        </mxCell>
        <mxCell id="o-ercXXJlJIod0jqBGvS-38" style="edgeStyle=orthogonalEdgeStyle;rounded=0;orthogonalLoop=1;jettySize=auto;html=1;exitX=0.5;exitY=0;exitDx=0;exitDy=0;" edge="1" parent="1" source="o-ercXXJlJIod0jqBGvS-30">
          <mxGeometry relative="1" as="geometry">
            <mxPoint x="560" y="230" as="targetPoint" />
            <Array as="points">
              <mxPoint x="730" y="230" />
            </Array>
          </mxGeometry>
        </mxCell>
        <mxCell id="o-ercXXJlJIod0jqBGvS-30" value="сообщение вы успешно зарегистрировались, окно входа" style="rounded=1;whiteSpace=wrap;html=1;" vertex="1" parent="1">
          <mxGeometry x="670" y="600" width="120" height="60" as="geometry" />
        </mxCell>
        <mxCell id="o-ercXXJlJIod0jqBGvS-35" style="edgeStyle=orthogonalEdgeStyle;rounded=0;orthogonalLoop=1;jettySize=auto;html=1;exitX=0.5;exitY=0;exitDx=0;exitDy=0;entryX=0.5;entryY=1;entryDx=0;entryDy=0;" edge="1" parent="1" source="o-ercXXJlJIod0jqBGvS-31" target="o-ercXXJlJIod0jqBGvS-3">
          <mxGeometry relative="1" as="geometry">
            <Array as="points">
              <mxPoint x="405" y="480" />
              <mxPoint x="360" y="480" />
            </Array>
          </mxGeometry>
        </mxCell>
        <mxCell id="o-ercXXJlJIod0jqBGvS-31" value="сообщеение об ошибке, окно регистрауции" style="rounded=1;whiteSpace=wrap;html=1;" vertex="1" parent="1">
          <mxGeometry x="345" y="600" width="120" height="60" as="geometry" />
        </mxCell>
      </root>
    </mxGraphModel>
  </diagram>
</mxfile>
